FFmpeg version SVN-r25716, Copyright (c) 2000-2010 the FFmpeg developers  built on Nov 10 2010 12:23:18 with gcc 4.1.2 20080704 (Red Hat 4.1.2-48)  configuration: --enable-libmp3lame --enable-shared --disable-mmx --arch=x86_64  libavutil     50.33. 0 / 50.33. 0  libavcore      0.12. 1 /  0.12. 1  libavcodec    52.94. 4 / 52.94. 4  libavformat   52.84. 0 / 52.84. 0  libavdevice   52. 2. 2 / 52. 2. 2  libavfilter    1.59. 0 /  1.59. 0  libswscale     0.12. 0 /  0.12. 0Seems stream 0 codec frame rate differs from container frame rate: 1000.00 (1000/1) -> 12.00 (12/1)Input #0, mov,mp4,m4a,3gp,3g2,mj2, from '/RAID10/data/converted_video_files/12021.mov':  Metadata:    major_brand     : qt      minor_version   : 537199360    compatible_brands: qt    Duration: 00:00:06.25, start: 0.000000, bitrate: 7398 kb/s    Stream #0.0(eng): Video: mpeg4, yuv420p, 678x518 [PAR 1:1 DAR 339:259], 7396 kb/s, 12 fps, 12 tbr, 600 tbn, 1k tbc[buffer @ 0x1d1a8ab0] w:678 h:518 pixfmt:yuv420pOutput #0, flv, to '/RAID10/data/converted_video_files/12021.flv':  Metadata:    encoder         : Lavf52.84.0    Stream #0.0(eng): Video: flv, yuv420p, 678x518 [PAR 1:1 DAR 339:259], q=2-31, 600 kb/s, 1k tbn, 24 tbcStream mapping:  Stream #0.0 -> #0.0Press [q] to stop encodingframe=   14 fps=  0 q=26.7 size=     385kB time=1.12 bitrate=2802.8kbits/s    frame=   39 fps= 37 q=31.0 size=     561kB time=3.21 bitrate=1433.3kbits/s    frame=   66 fps= 42 q=31.0 size=     743kB time=5.46 bitrate=1114.6kbits/s    frame=   75 fps= 41 q=31.0 Lsize=     815kB time=6.21 bitrate=1075.2kbits/s    video:814kB audio:0kB global headers:0kB muxing overhead 0.169248%